<svg width="8" height="8" viewBox="0 0 8 8" fill="none" xmlns="http://www.w3.org/2000/svg">
<path fill-rule="evenodd" clip-rule="evenodd" d="M7.28115 0.209252C7.34749 0.275558 7.40012 0.354284 7.43602 0.440934C7.47193 0.527583 7.49041 0.620458 7.49041 0.714252C7.49041 0.808045 7.47193 0.90092 7.43602 0.98757C7.40012 1.07422 7.34749 1.15295 7.28115 1.21925L1.22015 7.28125C1.15384 7.34757 1.07511 7.40018 0.988459 7.43607C0.901811 7.47196 0.808941 7.49043 0.715154 7.49043C0.621367 7.49043 0.528498 7.47196 0.44185 7.43607C0.355202 7.40018 0.276472 7.34757 0.210155 7.28125C0.143837 7.21493 0.0912311 7.1362 0.0553403 7.04956C0.0194495 6.96291 0.000976562 6.87004 0.000976562 6.77625C0.000976563 6.68246 0.0194495 6.5896 0.0553403 6.50295C0.0912311 6.4163 0.143837 6.33757 0.210155 6.27125L6.27015 0.209252C6.33646 0.142913 6.41519 0.0902883 6.50184 0.0543842C6.58849 0.0184801 6.68136 0 6.77515 0C6.86895 0 6.96182 0.0184801 7.04847 0.0543842C7.13512 0.0902883 7.21385 0.142913 7.28015 0.209252H7.28115Z" fill="#BEBEBE"/>
<path fill-rule="evenodd" clip-rule="evenodd" d="M0.209252 0.209252C0.142913 0.275558 0.0902883 0.354284 0.0543842 0.440934C0.0184801 0.527583 0 0.620458 0 0.714252C0 0.808045 0.0184801 0.90092 0.0543842 0.98757C0.0902883 1.07422 0.142913 1.15295 0.209252 1.21925L6.27025 7.28125C6.40419 7.41519 6.58584 7.49043 6.77525 7.49043C6.96466 7.49043 7.14632 7.41519 7.28025 7.28125C7.41419 7.14732 7.48943 6.96566 7.48943 6.77625C7.48943 6.58684 7.41419 6.40519 7.28025 6.27125L1.22025 0.209252C1.15395 0.142913 1.07522 0.0902883 0.98857 0.0543842C0.90192 0.0184801 0.809045 0 0.715251 0C0.621458 0 0.528583 0.0184801 0.441934 0.0543842C0.355284 0.0902883 0.275558 0.142913 0.209252 0.209252Z" fill="#BEBEBE"/>
</svg>
